<svg xmlns="http://www.w3.org/2000/svg" viewBox="0 0 136.354 83.35">
  <defs>
    <style>
      .cls-1 {
        fill: #f5f5f5;
      }
    </style>
  </defs>
  <path
    id="Path_765"
    d="M116.119 42.075h-.809a44.583 44.583 0 0 0 .809-7.283 34.416 34.416 0 0 0-65.952-13.757A19.822 19.822 0 0 0 35.2 14.561 20.722 20.722 0 0 0 14.561 35.2v2.02C6.065 40.861.4 49.358.4 59.473A24.348 24.348 0 0 0 24.677 83.75h91.442a20.722 20.722 0 0 0 20.635-20.635c0-11.329-9.306-21.04-20.635-21.04z"
    class="cls-1"
    data-name="Path 765"
    transform="translate(-.4 -.4)"
  ></path>
</svg>