<svg width="20" height="12" viewBox="0 0 20 12" fill="none" xmlns="http://www.w3.org/2000/svg">
<g clip-path="url(#clip0_307_470)">
<path d="M0 0.166666V11.8333H20V0.166666H0Z" fill="#012169"/>
<path d="M0 0.166666L20 11.8333L0 0.166666ZM20 0.166666L0 11.8333L20 0.166666Z" fill="black"/>
<path fill-rule="evenodd" clip-rule="evenodd" d="M7.66761 6L-0.617401 1.16707L0.617389 -0.833742L9.99999 4.63944L19.3826 -0.833742L20.6174 1.16707L12.3324 6L20.6174 10.8329L19.3826 12.8337L9.99999 7.36056L0.617389 12.8337L-0.617401 10.8329L7.66761 6Z" fill="white"/>
<mask id="mask0_307_470" style="mask-type:luminance" maskUnits="userSpaceOnUse" x="0" y="0" width="20" height="12">
<path d="M10 6H20V11.8333L10 6ZM10 6V11.8333H0L10 6ZM10 6H0V0.166666L10 6ZM10 6V0.166666H20L10 6Z" fill="white"/>
</mask>
<g mask="url(#mask0_307_470)">
<path d="M0 0.166666L20 11.8333L0 0.166666ZM20 0.166666L0 11.8333L20 0.166666Z" fill="black"/>
<path fill-rule="evenodd" clip-rule="evenodd" d="M8.44508 6L-0.411591 0.833605L0.411603 -0.500273L10 5.09296L19.5884 -0.500273L20.4116 0.833605L11.5549 6L20.4116 11.1664L19.5884 12.5003L10 6.90704L0.411603 12.5003L-0.411591 11.1664L8.44508 6Z" fill="#C8102E"/>
</g>
<path d="M-0.399994 4.44444H8.40001V-0.222223H11.6V4.44444H20.4V7.55556H11.6V12.2222H8.40001V7.55556H-0.399994V4.44444Z" fill="#C8102E"/>
<path fill-rule="evenodd" clip-rule="evenodd" d="M8.00001 -0.611113H12V4.05555H20.8V7.94444H12V12.6111H8.00001V7.94444H-0.799988V4.05555H8.00001V-0.611113ZM8.80001 0.166665V4.83333H1.21593e-05V7.16667H8.80001V11.8333H11.2V7.16667H20V4.83333H11.2V0.166665H8.80001Z" fill="white"/>
</g>
<defs>
<clipPath id="clip0_307_470">
<rect width="20" height="11.6667" fill="white" transform="translate(0 0.166666)"/>
</clipPath>
</defs>
</svg>
