<svg width="100" height="46" viewBox="0 0 100 46" fill="none" xmlns="http://www.w3.org/2000/svg">
<mask id="mask0_1343_4188" style="mask-type:luminance" maskUnits="userSpaceOnUse" x="70" y="10" width="30" height="26">
<path d="M94.2488 10.3239C92.2504 10.3239 90.9858 11.2445 89.4493 13.1409L73.4778 32.8592C71.1962 35.676 70.4219 35.676 70.4219 35.676H93.1539L99.999 10.3239H94.2488Z" fill="white"/>
</mask>
<g mask="url(#mask0_1343_4188)">
<path fill-rule="evenodd" clip-rule="evenodd" d="M70.4219 35.676H99.9994V32.8592H70.4219V35.676Z" fill="#A0A0A0"/>
</g>
<mask id="mask1_1343_4188" style="mask-type:luminance" maskUnits="userSpaceOnUse" x="70" y="10" width="30" height="26">
<path d="M94.2488 10.3239C92.2504 10.3239 90.9858 11.2445 89.4493 13.1409L73.4778 32.8592C71.1962 35.676 70.4219 35.676 70.4219 35.676H93.1539L99.999 10.3239H94.2488Z" fill="white"/>
</mask>
<g mask="url(#mask1_1343_4188)">
<path fill-rule="evenodd" clip-rule="evenodd" d="M70.4219 32.8592H99.9994V30.0423H70.4219V32.8592Z" fill="#007080"/>
</g>
<mask id="mask2_1343_4188" style="mask-type:luminance" maskUnits="userSpaceOnUse" x="70" y="10" width="30" height="26">
<path d="M94.2488 10.3239C92.2504 10.3239 90.9858 11.2445 89.4493 13.1409L73.4778 32.8592C71.1962 35.676 70.4219 35.676 70.4219 35.676H93.1539L99.999 10.3239H94.2488Z" fill="white"/>
</mask>
<g mask="url(#mask2_1343_4188)">
<path fill-rule="evenodd" clip-rule="evenodd" d="M70.4219 30.0423H99.9994V27.2252H70.4219V30.0423Z" fill="#90C000"/>
</g>
<mask id="mask3_1343_4188" style="mask-type:luminance" maskUnits="userSpaceOnUse" x="70" y="10" width="30" height="26">
<path d="M94.2488 10.3239C92.2504 10.3239 90.9858 11.2445 89.4493 13.1409L73.4778 32.8592C71.1962 35.676 70.4219 35.676 70.4219 35.676H93.1539L99.999 10.3239H94.2488Z" fill="white"/>
</mask>
<g mask="url(#mask3_1343_4188)">
<path fill-rule="evenodd" clip-rule="evenodd" d="M70.4219 27.2254H99.9994V24.4086H70.4219V27.2254Z" fill="#6070B0"/>
</g>
<mask id="mask4_1343_4188" style="mask-type:luminance" maskUnits="userSpaceOnUse" x="70" y="10" width="30" height="26">
<path d="M94.2488 10.3239C92.2504 10.3239 90.9858 11.2445 89.4493 13.1409L73.4778 32.8592C71.1962 35.676 70.4219 35.676 70.4219 35.676H93.1539L99.999 10.3239H94.2488Z" fill="white"/>
</mask>
<g mask="url(#mask4_1343_4188)">
<path fill-rule="evenodd" clip-rule="evenodd" d="M70.4219 24.4084H99.9994V21.5915H70.4219V24.4084Z" fill="#D08000"/>
</g>
<mask id="mask5_1343_4188" style="mask-type:luminance" maskUnits="userSpaceOnUse" x="70" y="10" width="30" height="26">
<path d="M94.2488 10.3239C92.2504 10.3239 90.9858 11.2445 89.4493 13.1409L73.4778 32.8592C71.1962 35.676 70.4219 35.676 70.4219 35.676H93.1539L99.999 10.3239H94.2488Z" fill="white"/>
</mask>
<g mask="url(#mask5_1343_4188)">
<path fill-rule="evenodd" clip-rule="evenodd" d="M70.4219 21.5915H99.9994V18.7746H70.4219V21.5915Z" fill="#00B0C0"/>
</g>
<mask id="mask6_1343_4188" style="mask-type:luminance" maskUnits="userSpaceOnUse" x="70" y="10" width="30" height="26">
<path d="M94.2488 10.3239C92.2504 10.3239 90.9858 11.2445 89.4493 13.1409L73.4778 32.8592C71.1962 35.676 70.4219 35.676 70.4219 35.676H93.1539L99.999 10.3239H94.2488Z" fill="white"/>
</mask>
<g mask="url(#mask6_1343_4188)">
<path fill-rule="evenodd" clip-rule="evenodd" d="M70.4219 18.7746H99.9994V15.9578H70.4219V18.7746Z" fill="#800040"/>
</g>
<mask id="mask7_1343_4188" style="mask-type:luminance" maskUnits="userSpaceOnUse" x="70" y="10" width="30" height="26">
<path d="M94.2488 10.3239C92.2504 10.3239 90.9858 11.2445 89.4493 13.1409L73.4778 32.8592C71.1962 35.676 70.4219 35.676 70.4219 35.676H93.1539L99.999 10.3239H94.2488Z" fill="white"/>
</mask>
<g mask="url(#mask7_1343_4188)">
<path fill-rule="evenodd" clip-rule="evenodd" d="M70.4219 15.9578H99.9994V13.1407H70.4219V15.9578Z" fill="#F0D000"/>
</g>
<mask id="mask8_1343_4188" style="mask-type:luminance" maskUnits="userSpaceOnUse" x="70" y="10" width="30" height="26">
<path d="M94.2488 10.3239C92.2504 10.3239 90.9858 11.2445 89.4493 13.1409L73.4778 32.8592C71.1962 35.676 70.4219 35.676 70.4219 35.676H93.1539L99.999 10.3239H94.2488Z" fill="white"/>
</mask>
<g mask="url(#mask8_1343_4188)">
<path fill-rule="evenodd" clip-rule="evenodd" d="M70.4219 13.1407H99.9994V10.3239H70.4219V13.1407Z" fill="#0071A4"/>
</g>
<path fill-rule="evenodd" clip-rule="evenodd" d="M17.8603 20.4186C17.4986 21.7415 16.3107 22.7958 15.1248 22.7958H8.69425L10.0847 17.7742H16.2692C17.5676 17.7742 18.2606 18.9558 17.8603 20.4186ZM16.4236 29.0526C16.075 30.2803 14.7559 31.2732 13.5368 31.2732H6.34465L7.65639 26.5402H14.7004C16.0408 26.5402 16.8145 27.6809 16.4236 29.0526ZM19.9188 24.459C22.5337 23.3084 23.6771 21.6188 23.8832 19.0172C24.1595 15.5133 21.2886 13.1408 17.6811 13.1408H6.08469L0 35.6761H14.5067C17.8649 35.6761 21.3184 33.0091 22.2092 29.7437C22.8956 27.2251 22.0979 25.3611 19.9188 24.459ZM38.8683 28.4576C43.1467 28.1688 46.4416 25.4197 47.1372 20.7211C47.7738 16.4263 44.1941 13.1408 39.4033 13.1408H28.6198L22.5353 35.6761H27.7626L32.6198 17.8718H39.2813C40.8379 17.8718 42.5117 19.2887 42.0327 21.0417C41.5987 22.6263 39.9413 23.8901 38.5189 23.8901H34.1704C33.0952 23.8901 32.2241 24.7775 32.2241 25.852C32.2241 26.1199 32.2786 26.3769 32.3771 26.6106L37.189 35.6761H42.6351L38.724 28.4677C38.7713 28.4645 38.8186 28.4621 38.8683 28.4576ZM55.072 26.5943L60.2115 18.7539L61.1525 26.5943H55.072ZM64.8451 16.344C64.5804 14.5352 63.3056 13.3505 61.8213 13.1766C60.3275 13.0003 58.7171 13.4095 57.0541 15.8565L43.5335 35.6761H49.1185L52.5028 30.5132H61.623L62.2425 35.6761H67.6059L64.8451 16.344Z" fill="white"/>
</svg>
