<svg width="213" height="24" viewBox="0 0 213 24" fill="none" xmlns="http://www.w3.org/2000/svg">
<mask id="mask0_328_733" style="mask-type:luminance" maskUnits="userSpaceOnUse" x="186" y="0" width="27" height="24">
<path d="M186.329 23.3229C186.329 23.3229 187.015 23.3229 189.036 20.7874L203.179 3.03548C204.539 1.32846 205.658 0.5 207.429 0.5H212.52L206.459 23.3246H186.329V23.3229Z" fill="white"/>
</mask>
<g mask="url(#mask0_328_733)">
<path d="M212.52 20.7871H186.329V23.3226H212.52V20.7871Z" fill="#A0A0A0"/>
<path d="M212.52 18.25H186.329V20.7855H212.52V18.25Z" fill="#007080"/>
<path d="M212.52 15.7148H186.329V18.2503H212.52V15.7148Z" fill="#90C000"/>
<path d="M212.52 13.1787H186.329V15.7142H212.52V13.1787Z" fill="#6070B0"/>
<path d="M212.52 10.6416H186.329V13.1771H212.52V10.6416Z" fill="#D08000"/>
<path d="M212.52 8.10645H186.329V10.6419H212.52V8.10645Z" fill="#00B0C0"/>
<path d="M212.52 5.57031H186.329V8.10579H212.52V5.57031Z" fill="#800040"/>
<path d="M212.52 3.0332H186.329V5.56868H212.52V3.0332Z" fill="#F0D000"/>
<path d="M212.52 0.498047H186.329V3.03352H212.52V0.498047Z" fill="#0071A4"/>
</g>
<path d="M29.6511 7.2944H35.5856C36.9636 7.2944 38.4454 8.57019 38.0213 10.1484C37.6359 11.5745 36.1699 12.7125 34.9098 12.7125H31.0591C30.107 12.7125 29.3361 13.5123 29.3361 14.4785C29.3361 14.7201 29.3854 14.9509 29.4716 15.1603L33.7324 23.3214H38.5563L35.0928 16.8315C35.1333 16.8279 35.1773 16.8261 35.2213 16.8226C39.0086 16.5613 41.9283 14.0885 42.5425 9.85672C43.1074 5.99177 39.9378 3.03223 35.6929 3.03223H26.1771L20.7583 23.3196H25.3869L29.6529 7.29082L29.6511 7.2944Z" fill="white"/>
<path d="M21.1471 8.50393C21.3917 5.34935 18.8487 3.21289 15.6544 3.21289H5.38709L0 23.5003H12.8438C15.8181 23.5003 18.8751 21.099 19.6653 18.1591C20.2724 15.8921 19.5649 14.2137 17.6378 13.4013C19.9539 12.3653 20.9658 10.8444 21.1489 8.50214L21.1471 8.50393ZM14.5422 17.5382C14.2342 18.644 13.0674 19.5369 11.985 19.5369H5.6194L6.77918 15.2765H13.0163C14.2043 15.2765 14.8871 16.3036 14.5422 17.5382ZM15.8146 9.7654C15.4943 10.9571 14.4418 11.9054 13.3912 11.9054H7.69786L8.9298 7.3856H14.4031C15.5523 7.3856 16.1683 8.44846 15.8128 9.7654H15.8146Z" fill="white"/>
<path d="M59.059 5.91884C58.825 4.29055 57.6951 3.22233 56.3805 3.06666C55.0588 2.90741 53.6315 3.27601 52.1602 5.47867L40.1875 23.3218H45.1346L48.13 18.6732H56.2062L56.7553 23.3218H61.5053L59.0608 5.91705L59.059 5.91884ZM50.4056 15.1464L54.9567 8.08751L55.7891 15.1464H50.4056Z" fill="white"/>
<path d="M87.2862 23.3235H91.9077L96.1051 6.69531H103.127L104.289 3.03613H85.6882L84.729 6.69531H91.7053L87.2862 23.3235Z" fill="white"/>
<path d="M106.483 23.3235L108.692 14.996H118.243L116.05 23.3235H120.638L126.024 3.03613H121.397L119.206 11.3493H109.658L111.863 3.03613H107.282L101.902 23.3235H106.483Z" fill="white"/>
<path d="M176.091 7.216H186.441L187.577 3.03613H176.385C174.624 3.03613 173.195 3.47989 172.07 4.31908C170.931 5.1708 170.164 6.36607 169.911 7.68838C169.657 9.01606 169.821 10.5925 170.595 11.7609C171.364 12.9222 172.688 13.6451 174.279 14.2999L178.349 15.9425C179.629 16.4686 180.204 17.068 180.079 17.8714C179.949 18.7196 179.301 19.1437 178.066 19.1437H167.834L166.734 23.3253H177.689C179.493 23.3253 180.965 22.8816 182.089 22.0424C183.228 21.1906 183.995 19.9936 184.249 18.6695C184.502 17.3436 184.34 15.769 183.564 14.5988C182.795 13.4375 181.477 12.7164 179.887 12.0651L175.817 10.4225C174.536 9.89641 173.955 9.2952 174.08 8.49179C174.212 7.64544 174.859 7.21958 176.091 7.21958" fill="white"/>
<path d="M133.104 19.3315C129.919 19.3315 129.139 18.2239 130.015 15.0533H140.631L142.887 11.4764H130.96L130.992 11.3583C131.807 8.38622 133.366 7.06749 136.344 7.06749H142.602L145.202 3.03613H135.812C131.643 3.03613 128.072 5.93305 126.974 10.1612L125.369 16.2414C124.341 20.1367 126.635 23.3253 130.466 23.3253H138.461L140.911 19.3333H133.104V19.3315Z" fill="white"/>
<path d="M163.707 4.19204L159.948 18.2311C159.948 18.2311 156.395 7.853 155.814 6.2444C155.231 4.63579 153.653 3.15602 151.646 3.15602C149.788 3.15602 148.169 4.25824 147.643 6.19429L143.044 23.3235H147.579L151.56 8.12856L155.839 19.9149C156.439 21.4519 157.393 23.3235 160.089 23.3235C161.776 23.3235 163.309 21.7024 163.749 20.0938L168.316 3.03613L163.707 4.19204Z" fill="white"/>
<path d="M81.0793 5.91884C80.8452 4.29055 79.7171 3.22233 78.4007 3.06666C77.079 2.90741 75.6517 3.27601 74.1804 5.47867L62.2095 23.3218H67.1531L70.1502 18.6732H78.2264L78.7755 23.3218H83.5255L81.081 5.91705L81.0793 5.91884ZM72.4258 15.1464L76.9769 8.08751L77.8111 15.1464H72.4258Z" fill="white"/>
</svg>
