<svg width="40" height="40" viewBox="0 0 40 40" fill="none" xmlns="http://www.w3.org/2000/svg">
<path d="M20.0002 36.6667C29.2049 36.6667 36.6668 29.2048 36.6668 20C36.6668 10.7953 29.2049 3.33334 20.0002 3.33334C10.7954 3.33334 3.3335 10.7953 3.3335 20C3.3335 29.2048 10.7954 36.6667 20.0002 36.6667Z" stroke="#00524E" stroke-width="2.5" stroke-linecap="round" stroke-linejoin="round"/>
<path d="M20.0002 30C25.523 30 30.0002 25.5229 30.0002 20C30.0002 14.4772 25.523 10 20.0002 10C14.4773 10 10.0002 14.4772 10.0002 20C10.0002 25.5229 14.4773 30 20.0002 30Z" stroke="#00524E" stroke-width="2.5" stroke-linecap="round" stroke-linejoin="round"/>
<path d="M20.0002 23.3333C21.8411 23.3333 23.3335 21.841 23.3335 20C23.3335 18.1591 21.8411 16.6667 20.0002 16.6667C18.1592 16.6667 16.6668 18.1591 16.6668 20C16.6668 21.841 18.1592 23.3333 20.0002 23.3333Z" stroke="#00524E" stroke-width="2.5" stroke-linecap="round" stroke-linejoin="round"/>
</svg>
