<svg id="icon" viewBox="0 0 32 32" xmlns="http://www.w3.org/2000/svg">
<path 
        fill="currentColor"
        d="M5 30L6.53548 24.1248C6.66046 23.6178 6.83008 23.1199 7.0354 22.6492C7.24073 22.1785 7.48176 21.7258 7.74958 21.3094C8.03525 20.8749 8.33877 20.4766 8.66908 20.1235C8.99046 19.7705 9.33862 19.4355 9.72249 19.1277C10.0974 18.838 10.4992 18.5755 10.9187 18.3311C11.3383 18.0957 11.7757 17.8965 12.2221 17.7336C12.6863 17.5706 13.1684 17.4439 13.6505 17.3624C14.1325 17.281 14.6414 17.2357 15.1592 17.2357H21.7653C22.2474 17.2357 22.7026 17.281 23.1133 17.3715C23.5239 17.462 23.9257 17.5887 24.3006 17.7517C24.6577 17.9328 24.988 18.15 25.2826 18.3944C25.5772 18.6389 25.8361 18.9195 26.0503 19.2273C26.2646 19.5532 26.4521 19.8972 26.6038 20.2683C26.7556 20.6305 26.8716 21.0288 26.9431 21.4452C26.9966 21.8616 27.0145 22.2962 26.9877 22.7397C26.9609 23.1833 26.8806 23.645 26.7556 24.1157L25.2201 29.9909H5V30ZM23.4347 10.2108C23.274 10.5548 23.0954 10.8898 22.899 11.2066C22.7026 11.5234 22.4705 11.8131 22.1938 12.0666C21.926 12.3382 21.6403 12.5826 21.3279 12.8089C21.0243 13.0262 20.694 13.2072 20.3548 13.3521C19.9977 13.515 19.6228 13.6327 19.2478 13.7051C18.8729 13.7776 18.4711 13.8138 18.0605 13.8138C17.6498 13.8138 17.2749 13.7776 16.9 13.7051C16.525 13.6327 16.159 13.515 15.793 13.3521C15.4538 13.2072 15.1234 13.0262 14.811 12.8089C14.4985 12.5917 14.2039 12.3563 13.9361 12.0938C13.6862 11.8222 13.4541 11.5234 13.2487 11.2066C13.0434 10.8898 12.8559 10.5548 12.6952 10.2108C12.5346 9.84869 12.4185 9.46848 12.3471 9.08826C12.2757 8.70805 12.24 8.30973 12.24 7.91141C12.24 7.51309 12.2757 7.11478 12.3471 6.72551C12.4185 6.33624 12.5346 5.96508 12.6952 5.62108C12.8559 5.25897 13.0434 4.92402 13.2487 4.60718C13.4541 4.29033 13.6862 4.0097 13.9361 3.72907C14.2039 3.47559 14.4896 3.24022 14.8021 3.03201C15.1056 2.8238 15.4359 2.63369 15.8019 2.47074C16.1411 2.3259 16.4982 2.20821 16.8821 2.12674C17.257 2.04526 17.6588 2 18.0694 2C18.4801 2 18.855 2.03621 19.2389 2.12674C19.6228 2.20821 19.9977 2.3259 20.3548 2.47074C20.694 2.63369 21.0154 2.8238 21.3279 3.03201C21.6314 3.24022 21.917 3.47559 22.1938 3.72907C22.4616 4.00065 22.6937 4.29033 22.899 4.60718C23.0954 4.91497 23.274 5.24087 23.4347 5.59392C23.5954 5.95603 23.7114 6.32719 23.7828 6.71646C23.8542 7.09667 23.89 7.50404 23.89 7.92047C23.89 8.33689 23.8542 8.7171 23.7828 9.09732C23.7114 9.47753 23.5954 9.85774 23.4347 10.2199V10.2108Z" />
</svg>
