<svg version="1.1" id="icon" xmlns="http://www.w3.org/2000/svg" xmlns:xlink="http://www.w3.org/1999/xlink" x="0px" y="0px"
	 viewBox="0 0 36 21.3" style="enable-background:new 0 0 36 21.3;" xml:space="preserve">
<path d="M17.7,16.2c1.3-0.5,4.1-1.7,12.2-4.4C32,11,36.7,9,35.9,7.5c-0.2-0.3-0.8-0.4-1.5-0.6c-0.6-0.1-1.3-0.2-2-0.6
	c-1.2-0.6-1.9-0.4-5.9,1.2c-1.1,0.4-2.5,1-4.2,1.6c-0.4,0.2-3.2-1.3-5.9-2.7c-2.2-1.1-4.3-2.2-5.2-2.5c-0.1,0-0.1,0-0.1,0
	c-0.3,0-0.6-0.1-2.5,0.7c-0.4,0.3-0.3,0.5,2.2,3.2c0.9,1,2.2,2.4,3.9,4.2c-0.6,0.4-6.8,2.7-11.4,4.3c0.3,0.5,0.4,0.6,0.8,0.7
	c0.1,0,0.1,0,0.2,0.1c0.1,0,0.3,0,0.4,0c2.3,0,4.3,0,11.1-0.4C16.6,16.6,16.7,16.6,17.7,16.2z M1.4,10.7c0.5-0.2,0.9-0.1,1.4,0.3
	l-2.4,0.9L0,11.2L1.4,10.7z M3.6,11.5l-2.8,1l0.4,0.6L4.3,12L3.6,11.5z M1.7,13.7l3.4-1.2l0.7,0.5l-3.7,1.3L1.7,13.7z M2.5,15
	l3.9-1.4c0.8,0.5,1,0.4,1,0.4L3,15.6L2.5,15z" fill="currentColor" />
</svg>
