<svg id="icon" viewBox="0 0 24 24" xmlns="http://www.w3.org/2000/svg">
<path 
        fill="currentColor"
        d="M20.2655 22.3845C20.0618 22.303 19.892 22.1875 19.7494 22.038L15.423 17.7103C14.6827 18.2334 13.8813 18.6207 13.0255 18.8788C12.163 19.137 11.2801 19.2661 10.3836 19.2661C9.15427 19.2661 7.99968 19.0351 6.92659 18.5663C5.85349 18.1043 4.91624 17.4657 4.10802 16.6708C3.29981 15.8691 2.66818 14.9316 2.19955 13.8513C1.73771 12.7711 1.5 11.6161 1.5 10.3864C1.5 9.15674 1.73092 8.00178 2.19955 6.92834C2.66138 5.8549 3.29981 4.91734 4.10802 4.10886C4.91624 3.30039 5.85349 2.66855 6.92659 2.19977C7.99968 1.73779 9.15427 1.5 10.3836 1.5C11.6129 1.5 12.7675 1.73099 13.8473 2.19977C14.9272 2.66176 15.8645 3.30039 16.6659 4.10886C17.4673 4.91734 18.099 5.8549 18.5608 6.92834C19.0226 8.00178 19.2603 9.15674 19.2603 10.3864C19.2603 11.29 19.1313 12.1732 18.8732 13.0293C18.6151 13.8921 18.2212 14.6938 17.705 15.4275L22.0314 19.7553C22.1808 19.8911 22.2962 20.061 22.3778 20.2648C22.4593 20.4686 22.5 20.6724 22.5 20.883C22.5 21.3314 22.3438 21.7187 22.0246 22.0312C21.7122 22.3437 21.325 22.5 20.8768 22.5C20.673 22.5 20.4693 22.4592 20.2655 22.3777V22.3845ZM10.3768 4.7407C9.59573 4.7407 8.86902 4.89017 8.18305 5.1823C7.49709 5.47444 6.89942 5.88208 6.39004 6.39162C5.88066 6.90116 5.47316 7.50582 5.18111 8.18521C4.88907 8.8714 4.73965 9.59835 4.73965 10.3797C4.73965 11.161 4.88907 11.8947 5.18111 12.5877C5.47316 13.2807 5.88066 13.8785 6.39004 14.3949C6.89942 14.9112 7.50388 15.312 8.18305 15.6042C8.86902 15.8963 9.59573 16.0458 10.3768 16.0458C11.1578 16.0458 11.8913 15.8963 12.5841 15.6042C13.2768 15.312 13.8745 14.9044 14.3907 14.3949C14.9069 13.8853 15.3076 13.2807 15.5996 12.5877C15.8917 11.8947 16.0411 11.161 16.0411 10.3797C16.0411 9.59835 15.8917 8.8714 15.5996 8.18521C15.3076 7.49903 14.9001 6.90116 14.3907 6.39162C13.8813 5.88208 13.2768 5.47444 12.5841 5.1823C11.8913 4.89017 11.1578 4.7407 10.3768 4.7407Z" />
</svg>
