<svg id="icon" viewBox="0 0 24 24" xmlns="http://www.w3.org/2000/svg">
    <path
        fill="currentColor"
        d="M19.5 4.5H17.25V3.75C17.25 3.336 16.914 3 16.5 3C16.086 3 15.75 3.336 15.75 3.75V4.5H8.25V3.75C8.25 3.336 7.914 3 7.5 3C7.086 3 6.75 3.336 6.75 3.75V4.5H4.5C3.672 4.5 3 5.172 3 6V19.5C3 20.3288 3.672 21 4.5 21H19.5C20.3288 21 21 20.328 21 19.5V6C21 5.172 20.328 4.5 19.5 4.5ZM7.5 8.25C7.086 8.25 6.75 7.914 6.75 7.5C6.75 7.086 7.086 6.75 7.5 6.75C7.914 6.75 8.25 7.086 8.25 7.5C8.25 7.914 7.914 8.25 7.5 8.25ZM13.9688 16.6642C14.292 16.923 14.3445 17.3948 14.0858 17.718C13.9373 17.904 13.7197 18 13.4992 18C13.335 18 13.17 17.946 13.0312 17.8358L8.54925 14.25L13.0312 10.6642C13.3553 10.4055 13.8263 10.4587 14.0858 10.7812C14.3445 11.1045 14.2913 11.577 13.9688 11.835L10.9507 14.25L13.9688 16.6642ZM16.5 8.25C16.086 8.25 15.75 7.914 15.75 7.5C15.75 7.086 16.086 6.75 16.5 6.75C16.914 6.75 17.25 7.086 17.25 7.5C17.25 7.914 16.914 8.25 16.5 8.25Z"
    />
</svg>
    