<svg id="icon" viewBox="0 0 40 40" xmlns="http://www.w3.org/2000/svg">
<path fill-rule="evenodd" clip-rule="evenodd" d="M20 37.3333C29.5729 37.3333 37.3333 29.5729 37.3333 20C37.3333 10.4271 29.5729 2.66667 20 2.66667C10.4271 2.66667 2.66667 10.4271 2.66667 20C2.66667 29.5729 10.4271 37.3333 20 37.3333ZM20 40C31.0457 40 40 31.0457 40 20C40 8.95431 31.0457 0 20 0C8.95431 0 0 8.95431 0 20C0 31.0457 8.95431 40 20 40Z" />
<path fill-rule="evenodd" clip-rule="evenodd" d="M27.5425 14.3431C28.0632 13.8224 28.0632 12.9782 27.5425 12.4575C27.0218 11.9368 26.1776 11.9368 25.6569 12.4575L20 18.1144L14.3431 12.4575C13.8224 11.9368 12.9782 11.9368 12.4575 12.4575C11.9368 12.9782 11.9368 13.8224 12.4575 14.3431L18.1144 20L12.4575 25.6568C11.9368 26.1775 11.9368 27.0218 12.4575 27.5425C12.9782 28.0632 13.8224 28.0632 14.3431 27.5425L20 21.8856L25.6569 27.5425C26.1776 28.0632 27.0218 28.0632 27.5425 27.5425C28.0632 27.0218 28.0632 26.1775 27.5425 25.6568L21.8856 20L27.5425 14.3431Z" />
</svg>
