<svg id="icon" viewBox="0 0 36 36" xmlns="http://www.w3.org/2000/svg">
    <path
        d="M17.6577 23.5637C18.933 23.0389 21.7958 21.8607 29.8194 19.117C32.0428 18.3568 36.7008 16.3532 35.9111 14.846C35.7341 14.5083 35.1584 14.4044 34.4575 14.2779C33.8364 14.1658 33.117 14.036 32.4897 13.7099C31.2515 13.0663 30.565 13.3287 26.5555 14.8611C25.4309 15.2909 24.045 15.8206 22.312 16.4582C21.9398 16.6438 19.1551 15.2001 16.4167 13.7804C14.2436 12.6539 12.0997 11.5424 11.2136 11.2722C11.1634 11.2722 11.1181 11.2673 11.0701 11.2621C10.7985 11.2328 10.4386 11.1939 8.60529 11.9742C8.18037 12.2975 8.3295 12.4585 10.8194 15.1481C11.7523 16.1558 13.0138 17.5186 14.6969 19.3778C14.1128 19.739 7.88499 22.0517 3.32321 23.6877C3.58276 24.23 3.68605 24.26 4.11611 24.3848C4.18081 24.4036 4.25291 24.4245 4.33406 24.4496C4.47731 24.4496 4.61837 24.4497 4.75838 24.4498C7.06506 24.4513 9.08397 24.4527 15.8498 24.0337C16.6338 23.9852 16.6518 23.9777 17.6577 23.5637ZM1.38465 18.0635C1.87616 17.8867 2.26892 18.0005 2.81517 18.3294L0.407496 19.1958L0.00170898 18.5613L1.38465 18.0635ZM3.62768 18.8722L0.845873 19.8731L1.283 20.4965L4.34171 19.3956L3.62768 18.8722ZM1.66715 21.1202L5.06215 19.9105L5.78071 20.4324L2.08559 21.7653L1.66715 21.1202ZM2.5227 22.3887L6.44988 20.9717C7.24309 21.4496 7.44281 21.3947 7.4513 21.392L2.95983 23.012L2.5227 22.3887Z"
    />
</svg>
    