<svg id="icon" viewBox="0 0 36 36" xmlns="http://www.w3.org/2000/svg">
    <path 
        fill="currentColor"
        d="M14.8465 22.627C16.2133 22.8101 19.2817 23.2212 27.6022 24.8569C29.9079 25.3101 34.9436 25.904 35.0132 24.2039C35.0288 23.823 34.5822 23.4451 34.0385 22.9851C33.5567 22.5775 32.9986 22.1053 32.6183 21.5093C31.8678 20.3329 31.1421 20.2168 26.9036 19.5392C25.7148 19.3491 24.2496 19.1148 22.43 18.8006C22.0149 18.7752 20.3251 16.1326 18.6634 13.5339C17.3447 11.4717 16.0438 9.4372 15.4115 8.76011C15.368 8.73502 15.3313 8.70815 15.2923 8.67964C15.0718 8.51849 14.7795 8.30487 12.8017 8.06393C12.272 8.13144 12.3206 8.34551 13.1322 11.9197C13.4362 13.2589 13.8474 15.0698 14.3754 17.5215C13.6889 17.5422 7.1391 16.4312 2.37048 15.5671C2.32411 16.1665 2.39858 16.2441 2.70862 16.5672C2.75526 16.6159 2.80724 16.67 2.86494 16.7324C2.989 16.804 3.11112 16.8746 3.23232 16.9447C5.22921 18.0994 6.97696 19.11 13.0458 22.13C13.749 22.48 13.7683 22.4826 14.8465 22.627ZM3.5038 9.72715C4.01788 9.81974 4.30113 10.1147 4.60971 10.6727L2.09144 10.2191L2.05726 9.46675L3.5038 9.72715ZM5.04204 11.549L2.13245 11.0249L2.19934 11.7833L5.39871 12.3593L5.04204 11.549ZM2.2202 12.5156L5.76518 13.1655L6.12656 13.9767L2.26003 13.2834L2.2202 12.5156ZM2.32682 14.0419L6.43633 14.7783C6.88433 15.5888 7.08474 15.6411 7.09343 15.6431L2.39371 14.8003L2.32682 14.0419Z"
     />
</svg>
    