<svg id="icon" viewBox="0 0 24 24" xmlns="http://www.w3.org/2000/svg">
    <path
        fill="currentColor"
        d="M19.5 4.5H17.25V3.75C17.25 3.336 16.914 3 16.5 3C16.086 3 15.75 3.336 15.75 3.75V4.5H8.25V3.75C8.25 3.336 7.914 3 7.5 3C7.086 3 6.75 3.336 6.75 3.75V4.5H4.5C3.672 4.5 3 5.172 3 6V19.5C3 20.3288 3.672 21 4.5 21H19.5C20.3288 21 21 20.328 21 19.5V6C21 5.172 20.328 4.5 19.5 4.5ZM7.5 8.25C7.086 8.25 6.75 7.914 6.75 7.5C6.75 7.086 7.086 6.75 7.5 6.75C7.914 6.75 8.25 7.086 8.25 7.5C8.25 7.914 7.914 8.25 7.5 8.25ZM10.9688 17.8358C10.83 17.946 10.665 18 10.5008 18C10.2803 18 10.0627 17.904 9.91425 17.7188C9.6555 17.3955 9.70875 16.923 10.0312 16.665L13.0492 14.25L10.0312 11.8358C9.708 11.577 9.6555 11.1053 9.91425 10.782C10.1745 10.4588 10.6455 10.4062 10.9688 10.665L15.4508 14.25L10.9688 17.8358ZM16.5 8.25C16.086 8.25 15.75 7.914 15.75 7.5C15.75 7.086 16.086 6.75 16.5 6.75C16.914 6.75 17.25 7.086 17.25 7.5C17.25 7.914 16.914 8.25 16.5 8.25Z"
    />
</svg>
    