<svg id="icon" viewBox="0 0 16 16" xmlns="http://www.w3.org/2000/svg">
<path 
        fill="currentColor"
        d="M9.5068 0.645537C9.99693 0.742561 10.4676 0.888098 10.9287 1.087C11.38 1.28105 11.8022 1.51391 12.205 1.78072C12.6077 2.04754 12.9717 2.34832 13.3017 2.68305C13.6414 3.02264 13.9471 3.39618 14.2189 3.79398C14.4858 4.19664 14.7187 4.61869 14.9128 5.06986C15.1069 5.53072 15.2525 6.00129 15.3544 6.49127C15.4563 6.98124 15.5 7.48092 15.5 8C15.5 8.51908 15.4515 9.01876 15.3544 9.50873C15.2574 9.99871 15.1118 10.4644 14.9128 10.9156C14.709 11.3765 14.4712 11.8034 14.2043 12.206C13.9374 12.6087 13.6365 12.9725 13.3017 13.3024C12.9668 13.6323 12.5883 13.9476 12.1904 14.2193C11.7876 14.4861 11.3654 14.719 10.9141 14.913C10.4531 15.1071 9.98237 15.2526 9.50194 15.3545C9.01666 15.4515 8.51682 15.5 8.00243 15.5C7.48803 15.5 6.98334 15.4515 6.49321 15.3545C6.00307 15.2574 5.53235 15.1119 5.07134 14.913C4.62003 14.719 4.19783 14.4861 3.79505 14.2193C3.39227 13.9525 3.02831 13.6517 2.69832 13.3169C2.35862 12.9774 2.0529 12.6038 1.78114 12.206C1.51424 11.8034 1.2813 11.3813 1.08719 10.9301C0.893077 10.4693 0.747493 9.99871 0.645584 9.50873C0.548528 9.01876 0.5 8.51908 0.5 8C0.5 7.48092 0.548528 6.98124 0.645584 6.49127C0.74264 6.00129 0.888224 5.53558 1.08719 5.08441C1.2813 4.62355 1.51424 4.19664 1.78114 3.79398C2.04804 3.39133 2.35377 3.02749 2.69832 2.69761C3.02831 2.35802 3.39712 2.05239 3.79505 1.78072C4.19298 1.51391 4.62003 1.28105 5.07134 1.087C5.53235 0.89295 6.00307 0.747413 6.49321 0.645537C6.98334 0.548512 7.48318 0.5 8.00243 0.5C8.52168 0.5 9.02152 0.548512 9.51165 0.645537H9.5068ZM7.86655 11.4977L8.87593 7.74774H7.25024L6.24086 11.4977H7.86655ZM8.11404 4.49741L7.64332 6.25356H9.26901L9.75429 4.49741H8.11404Z" />
</svg>
