<svg id="icon" viewBox="0 0 24 24" xmlns="http://www.w3.org/2000/svg">
    <path
        fill="currentColor"
        d="M8.625 12C10.899 12 12.75 10.1497 12.75 7.875C12.75 5.60025 10.899 3.75 8.625 3.75C6.351 3.75 4.5 5.60025 4.5 7.875C4.5 10.1497 6.351 12 8.625 12ZM15.75 12C17.8177 12 19.5 10.3177 19.5 8.25C19.5 6.18225 17.8177 4.5 15.75 4.5C14.9377 4.5 14.19 4.76625 13.5758 5.2065C14.0055 6.0015 14.25 6.90975 14.25 7.875C14.25 9.04875 13.8878 10.1393 13.2705 11.0415C13.9335 11.631 14.796 12 15.75 12ZM15.375 13.5C15.003 13.5 14.6392 13.5278 14.2875 13.5772C15.6593 14.574 16.5 15.966 16.5 17.5312V20.25H21V17.5312C21 15.3083 18.477 13.5 15.375 13.5ZM9 13.5C5.69175 13.5 3 15.3083 3 17.5312V20.25H15V17.5312C15 15.3083 12.309 13.5 9 13.5Z"
    />
</svg>
    