<svg id="icon" viewBox="0 0 24 24" xmlns="http://www.w3.org/2000/svg">
    <path
        fill="currentColor"
        d="M21.75 9.5625V4.6875H2.25V9.5625C3.59631 9.5625 4.6875 10.6537 4.6875 12C4.6875 13.3463 3.59631 14.4375 2.25 14.4375V19.3125H21.75V14.4375C20.4037 14.4375 19.3125 13.3463 19.3125 12C19.3125 10.6537 20.4037 9.5625 21.75 9.5625ZM12 17.6875C11.5515 17.6875 11.1875 17.3235 11.1875 16.875C11.1875 16.4265 11.5515 16.0625 12 16.0625C12.4485 16.0625 12.8125 16.4265 12.8125 16.875C12.8125 17.3235 12.4485 17.6875 12 17.6875ZM12 14.4375C11.5515 14.4375 11.1875 14.0735 11.1875 13.625C11.1875 13.1765 11.5515 12.8125 12 12.8125C12.4485 12.8125 12.8125 13.1765 12.8125 13.625C12.8125 14.0735 12.4485 14.4375 12 14.4375ZM12 11.1875C11.5515 11.1875 11.1875 10.8235 11.1875 10.375C11.1875 9.9265 11.5515 9.5625 12 9.5625C12.4485 9.5625 12.8125 9.9265 12.8125 10.375C12.8125 10.8235 12.4485 11.1875 12 11.1875ZM12 7.9375C11.5515 7.9375 11.1875 7.5735 11.1875 7.125C11.1875 6.6765 11.5515 6.3125 12 6.3125C12.4485 6.3125 12.8125 6.6765 12.8125 7.125C12.8125 7.5735 12.4485 7.9375 12 7.9375Z"
    />
</svg>
    